  0
SECTION
  2
HEADER
  9
$EXTMIN
 10
42.367200
 20
36.855400
  9
$EXTMAX
 10
81.127600
 20
65.125600
  9
$LIMMIN
 10
42.367200
 20
36.855400
  9
$LIMMAX
 10
81.127600
 20
65.125600
  9
$FILLMODE
 70
  1
  0
ENDSEC
  0
SECTION
  2
TABLES
  0
TABLE
  2
LTYPE
 70
  1
  0
LTYPE
  2
CONTINUOUS
 70
 64
  3
Solid line
 72
 65
 73
  0
 40
0.0
  0
ENDTAB
  0
TABLE
  2
LAYER
 70
 1
  0
LAYER
  2
0
 70
  0
 62
7
  6
CONTINUOUS
  0
LAYER
  2
gm3
 70
  0
 62
1
  6
CONTINUOUS
  0
ENDTAB
  0
TABLE
  2
STYLE
 70
  1
  0
STYLE
  2
STANDARD
 70
  0
 40
0.0
 41
1.0
 50
0.0
 71
  0
 42
0.2
  3
txt
  4

  0
ENDTAB
  0
ENDSEC
  0
SECTION
  2
BLOCKS
  0
BLOCK
  8
0
  2
D10
 70
64
 10
0.0
 20
0.0
  3
D10
  0
CIRCLE
  8
0
 10
0.000000
 20
0.000000
 40
0.127000
 0
ENDBLK
  8
0
  0
BLOCK
  8
0
  2
D11
 70
64
 10
0.0
 20
0.0
  3
D11
  0
CIRCLE
  8
0
 10
0.000000
 20
0.000000
 40
0.100000
 0
ENDBLK
  8
0
  0
ENDSEC
  0
SECTION
  2
ENTITIES
  0
POLYLINE
  8
gm3
 62
1
 40
0.000000
 41
0.000000
 66
  1
  0
VERTEX
  8
gm3
 10
55.098010
 20
58.206516
  0
VERTEX
  8
gm3
 10
55.098010
 20
58.206516
  0
VERTEX
  8
gm3
 10
55.098010
 20
58.206516
 42
0.263732
  0
VERTEX
  8
gm3
 10
62.316925
 20
61.559523
  0
VERTEX
  8
gm3
 10
62.316925
 20
61.559523
  0
SEQEND
  8
gm3
  0
POLYLINE
  8
gm3
 62
1
 40
0.000000
 41
0.000000
 66
  1
  0
VERTEX
  8
gm3
 10
66.472033
 20
62.247424
  0
VERTEX
  8
gm3
 10
66.472033
 20
62.247424
  0
VERTEX
  8
gm3
 10
66.472033
 20
62.247424
 42
0.519306
  0
VERTEX
  8
gm3
 10
75.947852
 20
61.007422
  0
VERTEX
  8
gm3
 10
75.947852
 20
61.007422
  0
SEQEND
  8
gm3
  0
POLYLINE
  8
gm3
 62
1
 40
0.000000
 41
0.000000
 66
  1
  0
VERTEX
  8
gm3
 10
74.754650
 20
53.078206
  0
VERTEX
  8
gm3
 10
74.754650
 20
53.078206
  0
VERTEX
  8
gm3
 10
74.754650
 20
53.078206
 42
0.430782
  0
VERTEX
  8
gm3
 10
67.500135
 20
52.500105
  0
VERTEX
  8
gm3
 10
67.500135
 20
52.500105
  0
SEQEND
  8
gm3
  0
POLYLINE
  8
gm3
 62
1
 40
0.000000
 41
0.000000
 66
  1
  0
VERTEX
  8
gm3
 10
58.967018
 20
54.690109
  0
VERTEX
  8
gm3
 10
58.967018
 20
54.690109
  0
VERTEX
  8
gm3
 10
58.967018
 20
54.690109
 42
0.600810
  0
VERTEX
  8
gm3
 10
54.000108
 20
45.000090
  0
VERTEX
  8
gm3
 10
54.000108
 20
45.000090
  0
SEQEND
  8
gm3
  0
POLYLINE
  8
gm3
 62
1
 40
0.000000
 41
0.000000
 66
  1
  0
VERTEX
  8
gm3
 10
56.000112
 20
37.000074
  0
VERTEX
  8
gm3
 10
56.000112
 20
37.000074
  0
VERTEX
  8
gm3
 10
56.000112
 20
37.000074
 42
0.263732
  0
VERTEX
  8
gm3
 10
63.219026
 20
40.353081
  0
VERTEX
  8
gm3
 10
63.219026
 20
40.353081
  0
SEQEND
  8
gm3
  0
POLYLINE
  8
gm3
 62
1
 40
0.000000
 41
0.000000
 66
  1
  0
VERTEX
  8
gm3
 10
42.500085
 20
52.000104
  0
VERTEX
  8
gm3
 10
44.000088
 20
44.500089
  0
SEQEND
  8
gm3
  0
POLYLINE
  8
gm3
 62
1
 40
0.000000
 41
0.000000
 66
  1
  0
VERTEX
  8
gm3
 10
42.500085
 20
52.000104
  0
VERTEX
  8
gm3
 10
48.500097
 20
56.500113
  0
SEQEND
  8
gm3
  0
POLYLINE
  8
gm3
 62
1
 40
0.000000
 41
0.000000
 66
  1
  0
VERTEX
  8
gm3
 10
55.000110
 20
65.000130
  0
VERTEX
  8
gm3
 10
62.500125
 20
65.000130
  0
SEQEND
  8
gm3
  0
POLYLINE
  8
gm3
 62
1
 40
0.000000
 41
0.000000
 66
  1
  0
VERTEX
  8
gm3
 10
62.500125
 20
61.500123
  0
VERTEX
  8
gm3
 10
62.500125
 20
65.000130
  0
SEQEND
  8
gm3
  0
POLYLINE
  8
gm3
 62
1
 40
0.000000
 41
0.000000
 66
  1
  0
VERTEX
  8
gm3
 10
55.000110
 20
58.000116
  0
VERTEX
  8
gm3
 10
55.000110
 20
65.000130
  0
SEQEND
  8
gm3
  0
POLYLINE
  8
gm3
 62
1
 40
0.000000
 41
0.000000
 66
  1
  0
VERTEX
  8
gm3
 10
81.000162
 20
39.500079
  0
VERTEX
  8
gm3
 10
81.000162
 20
46.500093
  0
SEQEND
  8
gm3
  0
POLYLINE
  8
gm3
 62
1
 40
0.000000
 41
0.000000
 66
  1
  0
VERTEX
  8
gm3
 10
78.000156
 20
43.000086
  0
VERTEX
  8
gm3
 10
78.000156
 20
43.000086
  0
VERTEX
  8
gm3
 10
78.000156
 20
43.000086
 42
1.000000
  0
VERTEX
  8
gm3
 10
66.000132
 20
43.000086
  0
VERTEX
  8
gm3
 10
66.000132
 20
43.000086
  0
VERTEX
  8
gm3
 10
66.000132
 20
43.000086
 42
1.000000
  0
VERTEX
  8
gm3
 10
78.000156
 20
43.000086
  0
VERTEX
  8
gm3
 10
78.000156
 20
43.000086
  0
SEQEND
  8
gm3
  0
ENDSEC
  0
EOF
